<?xml version="1.0" encoding="UTF-8"?>
<svg width="300px" height="150px" viewBox="0 0 300 150" version="1.1" xmlns="http://www.w3.org/2000/svg" xmlns:xlink="http://www.w3.org/1999/xlink">
    <title>bubble-right</title>
    <style>@media (prefers-color-scheme: dark) { .a { stroke: #FCFEAD; fill: #100B25 } }</style>
    <g id="bubble-right" stroke="none" stroke-width="1" fill="none" fill-rule="evenodd" stroke-linejoin="round">
        <path class="a" d="M104.827195,33.345679 C92.8271951,23.345679 83.8271951,26.345679 77.8271951,30.845679 C65.8271951,18.345679 42.8271951,16.845679 30.3271951,32.345679 C17.8271951,47.845679 26.3271951,65.845679 27.8271951,68.345679 C14.3271951,75.845679 9.32719506,90.345679 15.8271951,100.845679 C22.3271951,111.345679 37.8271951,115.845679 48.3271951,108.345679 C53.8271951,118.345679 65.3271951,122.345679 77.8271951,117.345679 C87.8271951,131.345679 107.827195,135.345679 121.327195,121.345679 C133.327195,134.345679 144.327195,136.845679 158.327195,125.345679 C169.827195,131.345679 181.327195,132.845679 193.327195,121.345679 C200.327195,128.845679 206.327195,127.345679 211.327195,122.345679 C221.327195,132.845679 237.827195,135.345679 245.827195,115.845679 C253.827195,124.845679 265.5,141 286.5,136 C264.5,131.5 261.827195,121.845679 258.327195,111.345679 C268.327195,114.845679 277.827195,111.345679 281.827195,98.845679 C285.827195,86.345679 279.327195,76.345679 265.327195,78.345679 C279.327195,67.345679 280.827195,55.345679 271.327195,47.345679 C261.827195,39.345679 256.827195,39.345679 248.827195,41.845679 C249.827195,32.345679 248.827195,26.345679 237.827195,21.345679 C226.827195,16.345679 215.327195,21.345679 211.327195,27.845679 C203.827195,15.345679 187.327195,6.84567901 173.827195,26.345679 C170.327195,13.845679 153.827195,6.34567901 140.827195,26.345679 C134.327195,14.845679 116.327195,9.84567901 104.827195,33.345679 Z" id="Path-2" stroke="#100B25" stroke-width="6" fill="#FCFEAD"></path>
    </g>
</svg>